<svg width="81" height="41" viewBox="0 0 81 41" fill="none" xmlns="http://www.w3.org/2000/svg">
<g clip-path="url(#clip0_49_102)">
<path d="M80.9983 3.52392C80.7785 1.71887 79.4445 0.280194 77.7456 9.91821e-05C70.2992 9.91821e-05 10.7297 9.91821e-05 3.28337 9.91821e-05C1.42248 0.307072 -0.00170898 2.0032 -0.00170898 4.04733C-0.00170898 7.3335 -0.00170898 33.6172 -0.00170898 36.9019C-0.00170898 39.1653 1.74085 41.0001 3.89193 41.0001C11.2157 41.0001 69.8132 41.0001 77.1371 41.0001C79.1177 41.0001 80.7532 39.4426 80.9983 37.4268C80.9983 30.6465 80.9983 6.91336 80.9983 3.52392Z" fill="#F6C700"/>
<path d="M9.76709 8.23896H16.195V33.0868H9.76709V8.23896Z" fill="black"/>
<path d="M28.3382 19.6843C27.786 15.8973 27.4789 13.7924 27.4184 13.3722C27.1493 11.3451 26.8929 9.58106 26.6478 8.0759C26.0914 8.0759 23.3148 8.0759 18.314 8.0759V32.9237H23.9445L23.9642 16.517L26.3337 32.9237H30.3442L32.5911 16.152L32.6122 32.9237H38.2245V8.0759H29.8272L28.3382 19.6843Z" fill="black"/>
<path d="M48.8411 13.245C48.9116 13.5618 48.9482 14.2805 48.9482 15.4037C48.9482 16.367 48.9482 24.0739 48.9482 25.0373C48.9482 26.691 48.8411 27.7038 48.6284 28.0773C48.4143 28.4507 47.8452 28.6361 46.9225 28.6361C46.9225 27.005 46.9225 13.9565 46.9225 12.3255C47.6226 12.3255 48.1002 12.4004 48.3537 12.5476C48.6073 12.6961 48.7707 12.9281 48.8411 13.245ZM51.7445 32.6706C52.5094 32.5022 53.1517 32.2051 53.673 31.7822C54.1928 31.3578 54.5576 30.7707 54.7661 30.0196C54.976 29.2698 55.1 27.7802 55.1 25.5522C55.1 24.6808 55.1 17.6996 55.1 16.8268C55.1 14.4757 55.0084 12.8998 54.8661 12.0991C54.7224 11.297 54.366 10.5685 53.7955 9.91494C53.2236 9.26139 52.3896 8.79173 51.2937 8.50598C50.1963 8.22023 48.4073 8.07594 45.2954 8.07594C44.9757 8.07594 43.3782 8.07594 40.5002 8.07594V32.9238H48.2875C50.0822 32.8672 51.2345 32.7837 51.7445 32.6706Z" fill="black"/>
<path d="M65.4708 28.9578C65.3524 29.2732 64.834 29.4331 64.4424 29.4331C64.0593 29.4331 63.8043 29.2803 63.6747 28.9733C63.5451 28.6678 63.4817 27.9703 63.4817 26.8783C63.4817 26.2219 63.4817 20.968 63.4817 20.3116C63.4817 19.1799 63.538 18.474 63.6521 18.1925C63.7648 17.9138 64.0128 17.7723 64.3959 17.7723C64.7876 17.7723 65.313 17.9322 65.4482 18.2533C65.5821 18.5744 65.6497 19.2605 65.6497 20.3116C65.6497 20.736 65.6497 22.8579 65.6497 26.6788C65.6088 27.9873 65.5497 28.747 65.4708 28.9578ZM57.2891 32.7079H63.076C63.3169 31.7587 63.4493 31.2311 63.4761 31.125C64.0001 31.7615 64.5762 32.2397 65.2088 32.5566C65.8384 32.8748 66.7809 33.0333 67.5106 33.0333C68.5262 33.0333 69.4024 32.7659 70.142 32.2298C70.8802 31.695 71.3507 31.0613 71.5507 30.3328C71.7507 29.6028 71.8508 28.4938 71.8508 27.0027C71.8508 26.3053 71.8508 20.7289 71.8508 20.0315C71.8508 18.532 71.8169 17.5531 71.7507 17.0933C71.6845 16.6336 71.4873 16.1653 71.1591 15.6858C70.8309 15.2062 70.3533 14.8342 69.7279 14.5682C69.1024 14.3023 68.3642 14.1693 67.5134 14.1693C66.7738 14.1693 65.8272 14.3178 65.1961 14.6107C64.5664 14.9035 63.9945 15.3477 63.4817 15.9432C63.4817 15.4043 63.4817 12.7108 63.4817 7.86007H57.2891V32.7079Z" fill="black"/>
</g>
<defs>
<clipPath id="clip0_49_102">
<rect width="81" height="41" fill="white"/>
</clipPath>
</defs>
</svg>
